HIERARCHY
ROOT Hips
{
	OFFSET 0.00000 0.00000 0.00000
	CHANNELS 6 Xposition Yposition Zposition Zrotation Yrotation Xrotation 
	JOINT LHipJoint
	{
		OFFSET 0 0 0
		CHANNELS 3 Zrotation Yrotation Xrotation
		JOINT LeftHip
		{
			OFFSET 1.34019 -1.87553 0.90315
			CHANNELS 3 Zrotation Yrotation Xrotation
			JOINT LeftKnee
			{
				OFFSET 2.55316 -7.01474 0.00000
				CHANNELS 3 Zrotation Yrotation Xrotation
				JOINT LeftAnkle
				{
					OFFSET 2.64657 -7.27139 0.00000
					CHANNELS 3 Zrotation Yrotation Xrotation
					JOINT LeftToe
					{
						OFFSET 0.24207 -0.66507 2.14489
						CHANNELS 3 Zrotation Yrotation Xrotation
						End Site
						{
							OFFSET 0.00000 -0.00000 1.12451
						}
					}
				}
			}
		}
	}
	JOINT RHipJoint
	{
		OFFSET 0 0 0
		CHANNELS 3 Zrotation Yrotation Xrotation
		JOINT RightHip
		{
			OFFSET -1.28320 -1.87553 0.90315
			CHANNELS 3 Zrotation Yrotation Xrotation
			JOINT RightKnee
			{
				OFFSET -2.60484 -7.15674 0.00000
				CHANNELS 3 Zrotation Yrotation Xrotation
				JOINT RightAnkle
				{
					OFFSET -2.60296 -7.15159 0.00000
					CHANNELS 3 Zrotation Yrotation Xrotation
					JOINT RightToe
					{
						OFFSET -0.31082 -0.85398 2.28998
						CHANNELS 3 Zrotation Yrotation Xrotation
						End Site
						{
							OFFSET -0.00000 -0.00000 1.21611
						}
					}
				}
			}
		}
	}
	JOINT lowerback
	{
		OFFSET 0 0 0
		CHANNELS 3 Zrotation Yrotation Xrotation
		JOINT Chest
		{
			OFFSET -0.00160 2.05581 -0.15156
			CHANNELS 3 Zrotation Yrotation Xrotation
			JOINT Chest2
			{
				OFFSET 0.04594 2.06326 -0.01617
				CHANNELS 3 Zrotation Yrotation Xrotation
				JOINT lowerneck
				{
					OFFSET 0 0 0
					CHANNELS 3 Zrotation Yrotation Xrotation
					JOINT Neck
					{
						OFFSET 0.03753 1.73883 0.26751
						CHANNELS 3 Zrotation Yrotation Xrotation
						JOINT Head
						{
							OFFSET -0.09795 1.76129 -0.31794
							CHANNELS 3 Zrotation Yrotation Xrotation
							End Site
							{
								OFFSET -0.03611 1.79987 -0.13846
							}
						}
					}
				}
				JOINT LeftCollar
				{
					OFFSET 0 0 0
					CHANNELS 3 Zrotation Yrotation Xrotation
					JOINT LeftShoulder
					{
						OFFSET 3.30667 1.29205 -0.22445
CHANNELS 3 Zrotation Xrotation Yrotation
						JOINT LeftElbow
						{
OFFSET 0 -4.927850 -0.000000
CHANNELS 3 Zrotation Xrotation Yrotation
							JOINT LeftWrist
							{
OFFSET 0 -3.440520 0.000000
CHANNELS 3 Zrotation Xrotation Yrotation
								JOINT lhand
								{
									OFFSET 0 0 0
CHANNELS 3 Zrotation Xrotation Yrotation
									JOINT LFingers
									{
OFFSET 0 -0.654330 0.000000
CHANNELS 3 Zrotation Xrotation Yrotation
										End Site
										{
OFFSET 0 -0.527530 0.000000
										}
									}
								}
								JOINT LThumb
								{
OFFSET 0 0.000000 0.000000
CHANNELS 3 Zrotation Xrotation Yrotation
									End Site
									{
OFFSET 0 -0.535590 0.535590
									}
								}
							}
						}
					}
				}
				JOINT RightCollar
				{
					OFFSET 0 0 0
					CHANNELS 3 Zrotation Yrotation Xrotation
					JOINT RightShoulder
					{
						OFFSET -3.20032 1.49783 -0.27688
CHANNELS 3 Zrotation Xrotation Yrotation
						JOINT RightElbow
						{
OFFSET 0 -5.091810 -0.000000
CHANNELS 3 Zrotation Xrotation Yrotation
							JOINT RightWrist
							{
OFFSET 0 -3.498650 -0.000000
CHANNELS 3 Zrotation Xrotation Yrotation
								JOINT rhand
								{
									OFFSET 0 0 0
CHANNELS 3 Zrotation Xrotation Yrotation
									JOINT RFingers
									{
OFFSET 0 -0.666410 0.000000
CHANNELS 3 Zrotation Xrotation Yrotation
										End Site
										{
OFFSET 0 -0.537280 0.000000
										}
									}
								}
								JOINT RThumb
								{
OFFSET 0 0.000000 0.000000
CHANNELS 3 Zrotation Xrotation Yrotation
									End Site
									{
OFFSET 0 -0.545480 0.545480
									}
								}
							}
						}
					}
				}
			}
		}
	}
}
MOTION
Frames: 8
Frame Time: 0.008333333333333333
-0.264300 18.191400 -22.491200 7.920800 3.265600 3.152400 0.000000 0.000000 0.000000 -20.324100 0.747800 -15.527000 4.074400 12.258800 36.653600 -0.064500 8.537900 -10.827600 0.993900 -6.344900 -17.788300 0.000000 0.000000 0.000000 9.653300 2.892400 -14.451600 -2.711400 -10.212600 29.668000 -0.378200 -8.919200 -18.105000 -0.000700 0.173500 -0.476700 9.440700 0.804400 12.480200 10.444100 2.747600 3.124800 5.380100 1.317500 -3.790200 5.634000 -2.765400 -17.939400 -23.737300 0.595300 24.033100 -9.916500 -2.008600 10.856800 -0.000000 -0.000000 0.000000 49.098400 8.752800 27.163600 20.783700 -31.575000 5.936300 17.196900 -10.856500 0.860500 0.000000 0.000000 0.000000 -7.125000 0.000000 0.000000 -7.307100 29.045200 -2.861700 -0.000000 -0.000000 0.000000 -41.201000 6.116400 -37.331800 -15.768100 -25.205100 -3.546600 -23.398000 -3.769200 0.703000 0.000000 0.000000 0.000000 7.125000 0.000000 -0.000000 2.517500 30.740400 0.877700
-0.283378 18.187282 -22.414055 7.748806 3.111522 3.088953 0.000000 0.000000 0.000000 -20.120042 0.619616 -16.098891 3.890590 12.013005 35.778532 -0.062849 8.755161 -11.213015 0.982938 -6.310858 -17.689088 0.000000 0.000000 0.000000 10.031657 3.290197 -14.169127 -2.753025 -10.284049 29.901678 -0.337978 -9.572876 -18.317703 -0.000951 0.196265 -0.539279 9.229427 0.778121 12.563771 10.299544 2.684396 3.177396 5.346838 1.287608 -3.780868 5.998556 -2.544071 -18.096427 -23.809911 0.799055 23.869441 -9.986444 -1.890327 10.865233 0.000000 0.000000 0.000000 48.850026 8.811529 27.340272 20.709096 -31.487193 5.897292 16.953402 -11.064887 0.961214 0.000000 0.000000 0.000000 -7.125000 0.000000 0.000000 -7.488954 28.940115 -2.952938 0.000000 0.000000 0.000000 -41.972122 6.505237 -37.801208 -15.843671 -25.308269 -3.578916 -23.444556 -3.627518 0.813945 0.000000 0.000000 0.000000 7.125000 0.000000 0.000000 2.484225 30.861573 0.858905
-0.305167 18.183454 -22.339725 7.576770 2.984084 3.018015 0.000000 0.000000 0.000000 -19.895626 0.453546 -16.634121 3.722571 11.781761 34.964340 -0.066106 8.974174 -11.490979 0.962768 -6.247583 -17.504385 0.000000 0.000000 0.000000 10.448831 3.819416 -13.829976 -2.797854 -10.360397 30.151961 -0.293961 -10.342087 -18.644244 -0.000799 0.185290 -0.509000 8.972631 0.729748 12.614949 10.116468 2.571742 3.281260 5.304811 1.235552 -3.697367 6.552761 -2.217374 -18.351062 -23.960259 1.094671 23.578453 -10.107892 -1.721049 10.866228 0.000000 0.000000 0.000000 48.648594 8.840659 27.545498 20.625734 -31.388814 5.853754 16.787330 -11.147243 0.977014 0.000000 0.000000 0.000000 -7.125000 0.000000 0.000000 -7.616619 28.923384 -3.007110 0.000000 0.000000 0.000000 -42.744311 6.805925 -38.169760 -15.913472 -25.403142 -3.608802 -23.443116 -3.387982 0.835282 0.000000 0.000000 0.000000 7.125000 0.000000 0.000000 2.486026 30.884877 0.858079
-0.326701 18.177426 -22.265948 7.388573 2.891242 2.940036 0.000000 0.000000 0.000000 -19.648188 0.272912 -17.161924 3.568037 11.561884 34.199608 -0.066445 9.136512 -11.742670 0.946373 -6.195584 -17.352952 0.000000 0.000000 0.000000 10.883637 4.269746 -13.500677 -2.842291 -10.435224 30.398017 -0.250550 -11.053077 -18.960357 -0.000648 0.168289 -0.462381 8.734176 0.665520 12.655575 9.928587 2.439827 3.380330 5.251044 1.173687 -3.611454 6.900201 -1.973701 -18.472434 -23.937783 1.286977 23.281116 -10.118006 -1.594679 10.817582 0.000000 0.000000 0.000000 48.459562 8.873158 27.717627 20.538969 -31.286228 5.808664 16.733495 -11.219610 0.971420 0.000000 0.000000 0.000000 -7.125000 0.000000 0.000000 -7.658844 28.929038 -3.022933 0.000000 0.000000 0.000000 -43.535753 7.120199 -38.473969 -15.973377 -25.484519 -3.634491 -23.392395 -3.136474 0.819878 0.000000 0.000000 0.000000 7.125000 0.000000 0.000000 2.525853 30.867478 0.872925
-0.348123 18.171207 -22.193076 7.182308 2.854165 2.851036 0.000000 0.000000 0.000000 -19.377796 0.070375 -17.673720 3.426639 11.355669 33.488887 -0.064930 9.230882 -11.922137 0.933697 -6.155168 -17.235237 0.000000 0.000000 0.000000 11.338969 4.634368 -13.156163 -2.880625 -10.499208 30.608940 -0.208890 -11.711429 -19.267881 -0.000498 0.144280 -0.396321 8.513183 0.576428 12.679029 9.729540 2.274778 3.480128 5.181133 1.095556 -3.513239 7.031886 -1.814406 -18.465267 -23.725560 1.372270 22.958963 -10.006911 -1.511190 10.710272 0.000000 0.000000 0.000000 48.287673 8.899292 27.850976 20.450068 -31.180718 5.762513 16.811326 -11.256655 0.942489 0.000000 0.000000 0.000000 -7.125000 0.000000 0.000000 -7.600461 28.959135 -2.994125 0.000000 0.000000 0.000000 -44.344990 7.456100 -38.667613 -16.032621 -25.564881 -3.660042 -23.285037 -2.890811 0.758523 0.000000 0.000000 0.000000 7.125000 0.000000 0.000000 2.609107 30.799678 0.905962
-0.368691 18.165342 -22.120645 6.942339 2.902813 2.747385 0.000000 0.000000 0.000000 -19.072889 -0.164168 -18.177205 3.304850 11.172658 32.864794 -0.059407 9.220454 -12.018409 0.928871 -6.139659 -17.190131 0.000000 0.000000 0.000000 11.819636 4.842181 -12.786073 -2.904221 -10.538379 30.738294 -0.170170 -12.271226 -19.522088 -0.000400 0.126878 -0.348539 8.336262 0.456676 12.683659 9.526479 2.074145 3.569277 5.088437 0.999478 -3.413178 6.916564 -1.756951 -18.315947 -23.302721 1.336061 22.638476 -9.766741 -1.477868 10.548628 0.000000 0.000000 0.000000 48.124945 8.903807 27.918218 20.367569 -31.082635 5.719935 17.016105 -11.280126 0.920537 0.000000 0.000000 0.000000 -7.125000 0.000000 0.000000 -7.443235 28.982433 -2.927045 0.000000 0.000000 0.000000 -45.181707 7.859690 -38.709443 -16.101655 -25.658216 -3.689878 -23.116901 -2.731944 0.669618 0.000000 0.000000 0.000000 7.125000 0.000000 0.000000 2.739446 30.701436 0.957804
-0.388659 18.160195 -22.048424 6.664248 3.018134 2.633941 0.000000 0.000000 0.000000 -18.729978 -0.427803 -18.681774 3.200449 11.012696 32.322809 -0.050448 9.132592 -12.060423 0.930661 -6.145315 -17.206604 0.000000 0.000000 0.000000 12.329000 4.925667 -12.387907 -2.912232 -10.551623 30.782085 -0.133480 -12.751176 -19.717452 -0.000400 0.122861 -0.337449 8.202805 0.319255 12.675604 9.329209 1.856167 3.648693 4.980832 0.894525 -3.315060 6.747832 -1.722315 -18.130954 -22.826038 1.274825 22.338809 -9.500701 -1.453794 10.383157 0.000000 0.000000 0.000000 47.958246 8.870877 27.930288 20.302545 -31.005080 5.686358 17.257634 -11.310124 0.917552 0.000000 0.000000 0.000000 -7.125000 0.000000 0.000000 -7.255919 28.985951 -2.851615 0.000000 0.000000 0.000000 -46.043860 8.324224 -38.655756 -16.182647 -25.767659 -3.724990 -22.922539 -2.681387 0.589224 0.000000 0.000000 0.000000 7.125000 0.000000 0.000000 2.890769 30.612480 1.016960
-0.408386 18.155840 -21.976553 6.325664 3.183428 2.515485 0.000000 0.000000 0.000000 -18.322309 -0.719020 -19.194832 3.116360 10.880957 31.879594 -0.039606 8.990102 -12.059040 0.938454 -6.170210 -17.279156 0.000000 0.000000 0.000000 12.892576 4.905070 -11.956845 -2.901109 -10.533236 30.721309 -0.098676 -13.152239 -19.850700 -0.000400 0.130762 -0.359320 8.115788 0.176950 12.657885 9.150411 1.638849 3.719641 4.867698 0.789727 -3.220675 6.689385 -1.641432 -18.012878 -22.425270 1.276562 22.098174 -9.293882 -1.403382 10.266459 0.000000 0.000000 0.000000 47.774016 8.780727 27.879507 20.275971 -30.973430 5.672685 17.467582 -11.368790 0.928557 0.000000 0.000000 0.000000 -7.125000 0.000000 0.000000 -7.092160 28.974989 -2.788203 0.000000 0.000000 0.000000 -46.938934 8.830861 -38.576728 -16.269994 -25.885358 -3.763077 -22.732687 -2.713985 0.543985 0.000000 0.000000 0.000000 7.125000 0.000000 0.000000 3.039574 30.561933 1.073115
